<svg xmlns="http://www.w3.org/2000/svg" viewBox="0 0 96 96" enable-background="new 0 0 96 96"><style type="text/css">.st0{fill:#334D5C;} .st1{opacity:0.1;} .st2{fill:#FFFFFF;} .st3{fill:#44C4A1;} .st4{fill:#FCD462;} .st5{fill:#E56353;} .st6{fill:#3EA69B;} .st7{fill:#F6C358;} .st8{fill:#D15241;} .st9{fill:#E05B49;} .st10{fill:#DC8744;} .st11{fill:#64798A;} .st12{fill:#3A556A;} .st13{fill:#2F4859;} .st14{fill:#EBF0F3;} .st15{fill:#27A2DB;} .st16{fill:#45B39C;} .st17{fill:#EA8953;} .st18{fill:#31978C;} .st19{fill:#EFC84A;} .st20{fill:#CE412D;} .st21{fill:#E1E6E9;} .st22{fill:#D5D6DB;} .st23{fill:#2D93BA;} .st24{fill:#6E8696;} .st25{fill:#D67838;} .st26{fill:#1C75A1;} .st27{fill:#54C5ED;} .st28{filter:url(#Adobe_OpacityMaskFilter);} .st29{filter:url(#Adobe_OpacityMaskFilter_1_);} .st30{mask:url(#SVGID_1_);fill:url(#SVGID_2_);} .st31{fill:url(#SVGID_3_);} .st32{fill:#82D6F4;} .st33{fill:#324C5E;} .st34{fill:none;} .st35{fill:#34BDE2;} .st36{fill:#4CC3ED;}</style><path d="M87 85.5c-12.1 14.6-63.2 13.3-76.8 0s-13.6-61.8 0-75.1 64.7-14.6 76.8 0c12 14.7 12 60.5 0 75.1z" class="st16"/><path d="M57.7 24.1c-2.6-2.3-6-3.6-9.7-3.6-8.2 0-14.9 6.7-14.9 14.9 0 4.5 4.5 11.6 8.5 17.1H27.2L23 67l-1.6 5.5-.9 3 20.1 20.1c18.6 1.7 39.3-1.4 46.4-10 4.2-5.1 6.9-14 8.2-24L59.3 25.7c-.5-.6-1-1.1-1.6-1.6z" class="st1"/><path d="M73.5 68.6l-4.7-16.1h-4.3l-13.3 6.2z" class="st3"/><path d="M27.2 52.5L23 67l33-14.5z" class="st14"/><path d="M21.4 72.5l-.9 3h55l-.3-1.2-28.7-13.5z" class="st11"/><path d="M51.2 58.7l13.3-6.2H56L23 67l-1.6 5.5 25.1-11.7 28.7 13.5-1.7-5.7z" class="st4"/><path d="M33.1 35.4c0 8.2 14.9 25.2 14.9 25.2V20.5c-8.2 0-14.9 6.7-14.9 14.9z" class="st5"/><path d="M48 20.5v40.1s14.9-16.9 14.9-25.2c0-8.2-6.7-14.9-14.9-14.9z" class="st8"/><circle cx="48" cy="35.4" r="9.9" class="st14"/></svg>