<svg xmlns="http://www.w3.org/2000/svg" viewBox="0 0 96 96" enable-background="new 0 0 96 96"><style type="text/css">.st0{fill:#334D5C;} .st1{opacity:0.1;} .st2{fill:#FFFFFF;} .st3{fill:#44C4A1;} .st4{fill:#FCD462;} .st5{fill:#E56353;} .st6{fill:#3EA69B;} .st7{fill:#F6C358;} .st8{fill:#D15241;} .st9{fill:#E05B49;} .st10{fill:#DC8744;} .st11{fill:#64798A;} .st12{fill:#3A556A;} .st13{fill:#2F4859;} .st14{fill:#EBF0F3;} .st15{fill:#27A2DB;} .st16{fill:#45B39C;} .st17{fill:#EA8953;} .st18{fill:#31978C;} .st19{fill:#EFC84A;} .st20{fill:#CE412D;} .st21{fill:#E1E6E9;} .st22{fill:#D5D6DB;} .st23{fill:#2D93BA;} .st24{fill:#6E8696;} .st25{fill:#D67838;} .st26{fill:#1C75A1;} .st27{fill:#54C5ED;} .st28{filter:url(#Adobe_OpacityMaskFilter);} .st29{filter:url(#Adobe_OpacityMaskFilter_1_);} .st30{mask:url(#SVGID_1_);fill:url(#SVGID_2_);} .st31{fill:url(#SVGID_3_);} .st32{fill:#82D6F4;} .st33{fill:#324C5E;} .st34{fill:none;} .st35{fill:#34BDE2;} .st36{fill:#4CC3ED;}</style><path d="M87 85.5c-12.1 14.6-63.2 13.3-76.8 0-13.6-13.3-13.6-61.8 0-75.1C23.8-2.8 74.9-4.1 87 10.5c12 14.6 12 60.4 0 75z" class="st17"/><path d="M62.6 20.5H33.4c-1 0-1.8.8-1.8 1.8v20.8H26c-.8 0-1.4.6-1.4 1.4v9.9c0 .4.2.8.4 1l6.7 6.6v11.6c0 .5.2.9.5 1.3l21 21c14.6-.4 28.3-3.7 33.8-10.4 5.4-6.5 8.3-19.1 8.9-32.5L63.8 21c-.3-.3-.7-.5-1.2-.5z" class="st1"/><path d="M62.6 22.5H33.4c-1 0-1.8.8-1.8 1.8v49.4c0 1 .8 1.8 1.8 1.8h29.2c1 0 1.8-.8 1.8-1.8V24.3c0-1-.8-1.8-1.8-1.8z" class="st12"/><path d="M62.6 20.5H33.4c-1 0-1.8.8-1.8 1.8v49.4c0 1 .8 1.8 1.8 1.8h29.2c1 0 1.8-.8 1.8-1.8V22.3c0-1-.8-1.8-1.8-1.8z" class="st11"/><path d="M35.6 24.5h24.7v40.6H35.6zM48 72.3c-1.5 0-2.8-1.2-2.8-2.8 0-1.5 1.2-2.8 2.8-2.8 1.5 0 2.8 1.2 2.8 2.8 0 1.5-1.3 2.8-2.8 2.8zm0-4.6c-1 0-1.8.8-1.8 1.8s.8 1.8 1.8 1.8 1.8-.8 1.8-1.8-.8-1.8-1.8-1.8z" class="st14"/><path d="M60.4 29.4h4v12.7h-4z" class="st12"/><path d="M52.1 30.8v9.9c0 .8.6 1.4 1.4 1.4h1.4v3.2c0 .6.7.8 1.1.4l3.6-3.6h.8V29.4h-6.9c-.8 0-1.4.6-1.4 1.4z" class="st21"/><path d="M70 28.3H53.5c-.8 0-1.4.6-1.4 1.4v9.9c0 .8.6 1.4 1.4 1.4h1.4v3.2c0 .6.7.8 1.1.4l3.6-3.6H70c.8 0 1.4-.6 1.4-1.4v-9.9c0-.7-.6-1.4-1.4-1.4z" class="st4"/><path d="M54.4 31.8h14.8V33H54.4zM54.4 35.8h14.8V37H54.4z" class="st10"/><path d="M31.6 44.2h4v12.7h-4z" class="st12"/><path d="M43.9 45.6v9.9c0 .8-.6 1.4-1.4 1.4h-1.4V60c0 .6-.7.8-1.1.4l-3.6-3.6h-.8V44.2h6.9c.8 0 1.4.6 1.4 1.4z" class="st21"/><path d="M26 43.1h16.5c.8 0 1.4.6 1.4 1.4v9.9c0 .8-.6 1.4-1.4 1.4h-1.4V59c0 .6-.7.8-1.1.4l-3.6-3.6H26c-.8 0-1.4-.6-1.4-1.4v-9.9c0-.7.6-1.4 1.4-1.4z" class="st15"/><path d="M26.8 46.7h14.8v1.2H26.8zM26.8 50.7h14.8v1.2H26.8z" class="st14"/></svg>